<mxfile host="app.diagrams.net" agent="Mozilla/5.0 (Windows NT 10.0; Win64; x64) AppleWebKit/537.36 (KHTML, like Gecko) Chrome/131.0.0.0 Safari/537.36 Edg/131.0.0.0" version="26.0.5">
  <diagram name="Page-1" id="7LVE9Hj-M3n7S1KzNMF_">
    <mxGraphModel dx="1149" dy="517" grid="1" gridSize="10" guides="1" tooltips="1" connect="1" arrows="1" fold="1" page="1" pageScale="1" pageWidth="827" pageHeight="1169" math="0" shadow="0">
      <root>
        <mxCell id="0" />
        <mxCell id="1" parent="0" />
        <mxCell id="47AGt8TNXksjBqSl8YJA-5" style="edgeStyle=orthogonalEdgeStyle;rounded=0;orthogonalLoop=1;jettySize=auto;html=1;" edge="1" parent="1" source="47AGt8TNXksjBqSl8YJA-1" target="47AGt8TNXksjBqSl8YJA-2">
          <mxGeometry relative="1" as="geometry" />
        </mxCell>
        <mxCell id="47AGt8TNXksjBqSl8YJA-1" value="Expertise Front" style="rounded=1;whiteSpace=wrap;html=1;" vertex="1" parent="1">
          <mxGeometry x="280" y="150" width="120" height="60" as="geometry" />
        </mxCell>
        <mxCell id="47AGt8TNXksjBqSl8YJA-6" style="edgeStyle=orthogonalEdgeStyle;rounded=0;orthogonalLoop=1;jettySize=auto;html=1;" edge="1" parent="1" source="47AGt8TNXksjBqSl8YJA-2" target="47AGt8TNXksjBqSl8YJA-3">
          <mxGeometry relative="1" as="geometry" />
        </mxCell>
        <mxCell id="47AGt8TNXksjBqSl8YJA-7" style="edgeStyle=orthogonalEdgeStyle;rounded=0;orthogonalLoop=1;jettySize=auto;html=1;" edge="1" parent="1" source="47AGt8TNXksjBqSl8YJA-2" target="47AGt8TNXksjBqSl8YJA-4">
          <mxGeometry relative="1" as="geometry" />
        </mxCell>
        <mxCell id="47AGt8TNXksjBqSl8YJA-2" value="Expertise Back&lt;div&gt;(Python)&lt;/div&gt;&lt;div&gt;(Flask)&lt;/div&gt;&lt;div&gt;(SqlAlchemy)&lt;/div&gt;" style="rounded=1;whiteSpace=wrap;html=1;" vertex="1" parent="1">
          <mxGeometry x="280" y="320" width="120" height="60" as="geometry" />
        </mxCell>
        <mxCell id="47AGt8TNXksjBqSl8YJA-3" value="BCR" style="shape=cylinder3;whiteSpace=wrap;html=1;boundedLbl=1;backgroundOutline=1;size=15;" vertex="1" parent="1">
          <mxGeometry x="150" y="480" width="60" height="80" as="geometry" />
        </mxCell>
        <mxCell id="47AGt8TNXksjBqSl8YJA-4" value="BigQuery" style="rounded=1;whiteSpace=wrap;html=1;" vertex="1" parent="1">
          <mxGeometry x="460" y="480" width="120" height="60" as="geometry" />
        </mxCell>
      </root>
    </mxGraphModel>
  </diagram>
</mxfile>
